<?xml version="1.0" encoding="UTF-8" standalone="no"?>
<!DOCTYPE svg PUBLIC "-//W3C//DTD SVG 1.1//EN"
 "http://www.w3.org/Graphics/SVG/1.1/DTD/svg11.dtd">
<!-- Generated by graphviz version 8.0.5 (20230430.1635)
 -->
<!-- Pages: 1 -->
<svg width="1696pt" height="487pt"
 viewBox="0.00 0.00 1695.50 486.50" xmlns="http://www.w3.org/2000/svg" xmlns:xlink="http://www.w3.org/1999/xlink">
<g id="graph0" class="graph" transform="scale(1 1) rotate(0) translate(4 482.5)">
<polygon fill="white" stroke="none" points="-4,4 -4,-482.5 1691.5,-482.5 1691.5,4 -4,4"/>
<!-- 1 -->
<g id="node1" class="node">
<title>1</title>
<polygon fill="none" stroke="black" points="579.75,-478.5 525.75,-478.5 525.75,-439 579.75,-439 579.75,-478.5"/>
<text text-anchor="middle" x="552.75" y="-461.2" font-family="Times New Roman,serif" font-size="14.00">root</text>
<text text-anchor="middle" x="552.75" y="-445.45" font-family="Times New Roman,serif" font-size="14.00">main </text>
</g>
<!-- 2 -->
<g id="node2" class="node">
<title>2</title>
<polygon fill="none" stroke="darkred" points="586.62,-403 518.88,-403 518.88,-367 586.62,-367 586.62,-403"/>
<text text-anchor="middle" x="552.75" y="-379.57" font-family="Times New Roman,serif" font-size="14.00">sequence</text>
</g>
<!-- 1&#45;&gt;2 -->
<g id="edge1" class="edge">
<title>1&#45;&gt;2</title>
<path fill="none" stroke="black" d="M552.75,-438.52C552.75,-431.07 552.75,-422.4 552.75,-414.26"/>
<polygon fill="black" stroke="black" points="556.25,-414.32 552.75,-404.32 549.25,-414.32 556.25,-414.32"/>
</g>
<!-- 3 -->
<g id="node3" class="node">
<title>3</title>
<polygon fill="none" stroke="green" points="558.5,-331 439,-331 439,-327 435,-327 435,-323 439,-323 439,-303 435,-303 435,-299 439,-299 439,-295 558.5,-295 558.5,-331"/>
<polyline fill="none" stroke="green" points="439,-327 443,-327 443,-323 439,-323"/>
<polyline fill="none" stroke="green" points="439,-303 443,-303 443,-299 439,-299"/>
<text text-anchor="middle" x="498.75" y="-307.57" font-family="Times New Roman,serif" font-size="14.00">write_coordinates </text>
</g>
<!-- 2&#45;&gt;3 -->
<g id="edge2" class="edge">
<title>2&#45;&gt;3</title>
<path fill="none" stroke="black" d="M539.4,-366.7C533.12,-358.56 525.51,-348.69 518.58,-339.7"/>
<polygon fill="black" stroke="black" points="520.82,-337.88 511.94,-332.1 515.28,-342.16 520.82,-337.88"/>
</g>
<!-- 4 -->
<g id="node4" class="node">
<title>4</title>
<polygon fill="none" stroke="blue" points="636.5,-331 577,-331 577,-295 636.5,-295 636.5,-331"/>
<text text-anchor="middle" x="606.75" y="-307.57" font-family="Times New Roman,serif" font-size="14.00">fallback</text>
</g>
<!-- 2&#45;&gt;4 -->
<g id="edge3" class="edge">
<title>2&#45;&gt;4</title>
<path fill="none" stroke="black" d="M566.1,-366.7C572.38,-358.56 579.99,-348.69 586.92,-339.7"/>
<polygon fill="black" stroke="black" points="590.22,-342.16 593.56,-332.1 584.68,-337.88 590.22,-342.16"/>
</g>
<!-- 5 -->
<g id="node5" class="node">
<title>5</title>
<polygon fill="none" stroke="darkred" points="489.88,-259 261.62,-259 261.62,-219.5 489.88,-219.5 489.88,-259"/>
<text text-anchor="middle" x="375.75" y="-241.7" font-family="Times New Roman,serif" font-size="14.00">sequence</text>
<text text-anchor="middle" x="375.75" y="-225.95" font-family="Times New Roman,serif" font-size="14.00">drive_home_if_low (critical_level=10)</text>
</g>
<!-- 4&#45;&gt;5 -->
<g id="edge4" class="edge">
<title>4&#45;&gt;5</title>
<path fill="none" stroke="black" d="M576.68,-298.42C573.68,-297.21 570.67,-296.05 567.75,-295 533.6,-282.75 495.28,-271.36 461.9,-262.18"/>
<polygon fill="black" stroke="black" points="463.28,-258.66 452.72,-259.41 461.44,-265.41 463.28,-258.66"/>
</g>
<!-- 6 -->
<g id="node6" class="node">
<title>6</title>
<polygon fill="none" stroke="darkred" points="997.88,-259 889.62,-259 889.62,-219.5 997.88,-219.5 997.88,-259"/>
<text text-anchor="middle" x="943.75" y="-241.7" font-family="Times New Roman,serif" font-size="14.00">sequence</text>
<text text-anchor="middle" x="943.75" y="-225.95" font-family="Times New Roman,serif" font-size="14.00">place_detail_op </text>
</g>
<!-- 4&#45;&gt;6 -->
<g id="edge5" class="edge">
<title>4&#45;&gt;6</title>
<path fill="none" stroke="black" d="M636.95,-305.57C691.16,-294.03 806.06,-269.57 878.83,-254.07"/>
<polygon fill="black" stroke="black" points="879.2,-257.36 888.25,-251.85 877.74,-250.51 879.2,-257.36"/>
</g>
<!-- 7 -->
<g id="node7" class="node">
<title>7</title>
<polygon fill="none" stroke="green" points="283.25,-181.75 18.25,-181.75 18.25,-177.75 14.25,-177.75 14.25,-173.75 18.25,-173.75 18.25,-153.75 14.25,-153.75 14.25,-149.75 18.25,-149.75 18.25,-145.75 283.25,-145.75 283.25,-181.75"/>
<polyline fill="none" stroke="green" points="18.25,-177.75 22.25,-177.75 22.25,-173.75 18.25,-173.75"/>
<polyline fill="none" stroke="green" points="18.25,-153.75 22.25,-153.75 22.25,-149.75 18.25,-149.75"/>
<text text-anchor="middle" x="150.75" y="-158.32" font-family="Times New Roman,serif" font-size="14.00">less (lhs=&amp;battery_level,rhs=&amp;critical_level)</text>
</g>
<!-- 5&#45;&gt;7 -->
<g id="edge6" class="edge">
<title>5&#45;&gt;7</title>
<path fill="none" stroke="black" d="M316.93,-219.03C285.44,-208.75 246.63,-196.07 214.43,-185.55"/>
<polygon fill="black" stroke="black" points="215.82,-182 205.23,-182.22 213.64,-188.65 215.82,-182"/>
</g>
<!-- 8 -->
<g id="node8" class="node">
<title>8</title>
<polygon fill="none" stroke="green" points="450.12,-181.75 301.38,-181.75 301.38,-177.75 297.38,-177.75 297.38,-173.75 301.38,-173.75 301.38,-153.75 297.38,-153.75 297.38,-149.75 301.38,-149.75 301.38,-145.75 450.12,-145.75 450.12,-181.75"/>
<polyline fill="none" stroke="green" points="301.38,-177.75 305.38,-177.75 305.38,-173.75 301.38,-173.75"/>
<polyline fill="none" stroke="green" points="301.38,-153.75 305.38,-153.75 305.38,-149.75 301.38,-149.75"/>
<text text-anchor="middle" x="375.75" y="-158.32" font-family="Times New Roman,serif" font-size="14.00">drive_to (dest=&amp;home)</text>
</g>
<!-- 5&#45;&gt;8 -->
<g id="edge7" class="edge">
<title>5&#45;&gt;8</title>
<path fill="none" stroke="black" d="M375.75,-219.32C375.75,-211.34 375.75,-201.87 375.75,-193.08"/>
<polygon fill="black" stroke="black" points="379.25,-193.1 375.75,-183.1 372.25,-193.1 379.25,-193.1"/>
</g>
<!-- 9 -->
<g id="node9" class="node">
<title>9</title>
<polygon fill="none" stroke="darkred" points="523.25,-181.75 468.25,-181.75 468.25,-145.75 523.25,-145.75 523.25,-181.75"/>
<text text-anchor="middle" x="495.75" y="-158.32" font-family="Times New Roman,serif" font-size="14.00">parallel</text>
</g>
<!-- 6&#45;&gt;9 -->
<g id="edge8" class="edge">
<title>6&#45;&gt;9</title>
<path fill="none" stroke="black" d="M889.26,-229.31C797.39,-214.24 613.91,-184.14 534.2,-171.06"/>
<polygon fill="black" stroke="black" points="535.1,-167.49 524.66,-169.33 533.96,-174.4 535.1,-167.49"/>
</g>
<!-- 10 -->
<g id="node10" class="node">
<title>10</title>
<polygon fill="none" stroke="darkred" points="874.25,-183.5 801.25,-183.5 801.25,-144 874.25,-144 874.25,-183.5"/>
<text text-anchor="middle" x="837.75" y="-166.2" font-family="Times New Roman,serif" font-size="14.00">sequence</text>
<text text-anchor="middle" x="837.75" y="-150.45" font-family="Times New Roman,serif" font-size="14.00">grasp_op </text>
</g>
<!-- 6&#45;&gt;10 -->
<g id="edge9" class="edge">
<title>6&#45;&gt;10</title>
<path fill="none" stroke="black" d="M916.18,-219.13C903.29,-210.2 887.79,-199.44 873.97,-189.87"/>
<polygon fill="black" stroke="black" points="876.4,-186.6 866.19,-183.77 872.41,-192.35 876.4,-186.6"/>
</g>
<!-- 11 -->
<g id="node11" class="node">
<title>11</title>
<polygon fill="none" stroke="darkred" points="1077.25,-181.75 1022.25,-181.75 1022.25,-145.75 1077.25,-145.75 1077.25,-181.75"/>
<text text-anchor="middle" x="1049.75" y="-158.32" font-family="Times New Roman,serif" font-size="14.00">parallel</text>
</g>
<!-- 6&#45;&gt;11 -->
<g id="edge10" class="edge">
<title>6&#45;&gt;11</title>
<path fill="none" stroke="black" d="M971.32,-219.13C985.04,-209.62 1001.73,-198.05 1016.19,-188.02"/>
<polygon fill="black" stroke="black" points="1017.63,-190.59 1023.85,-182.02 1013.64,-184.84 1017.63,-190.59"/>
</g>
<!-- 12 -->
<g id="node12" class="node">
<title>12</title>
<polygon fill="none" stroke="darkred" points="1290.25,-181.75 1235.25,-181.75 1235.25,-145.75 1290.25,-145.75 1290.25,-181.75"/>
<text text-anchor="middle" x="1262.75" y="-158.32" font-family="Times New Roman,serif" font-size="14.00">parallel</text>
</g>
<!-- 6&#45;&gt;12 -->
<g id="edge11" class="edge">
<title>6&#45;&gt;12</title>
<path fill="none" stroke="black" d="M998.23,-225.7C1062.62,-210.86 1168.13,-186.55 1224.47,-173.57"/>
<polygon fill="black" stroke="black" points="1225.1,-176.79 1234.05,-171.13 1223.52,-169.97 1225.1,-176.79"/>
</g>
<!-- 13 -->
<g id="node13" class="node">
<title>13</title>
<polygon fill="none" stroke="green" points="1517.12,-181.75 1308.38,-181.75 1308.38,-177.75 1304.38,-177.75 1304.38,-173.75 1308.38,-173.75 1308.38,-153.75 1304.38,-153.75 1304.38,-149.75 1308.38,-149.75 1308.38,-145.75 1517.12,-145.75 1517.12,-181.75"/>
<polyline fill="none" stroke="green" points="1308.38,-177.75 1312.38,-177.75 1312.38,-173.75 1308.38,-173.75"/>
<polyline fill="none" stroke="green" points="1308.38,-153.75 1312.38,-153.75 1312.38,-149.75 1308.38,-149.75"/>
<text text-anchor="middle" x="1412.75" y="-158.32" font-family="Times New Roman,serif" font-size="14.00">move_arm_to (dest=&amp;arm_home)</text>
</g>
<!-- 6&#45;&gt;13 -->
<g id="edge12" class="edge">
<title>6&#45;&gt;13</title>
<path fill="none" stroke="black" d="M998.37,-230.06C1066.08,-219.85 1185.33,-201.73 1297.29,-183.89"/>
<polygon fill="black" stroke="black" points="1297.77,-187.19 1307.1,-182.16 1296.67,-180.28 1297.77,-187.19"/>
</g>
<!-- 14 -->
<g id="node14" class="node">
<title>14</title>
<polygon fill="none" stroke="green" points="161.5,-108 0,-108 0,-104 -4,-104 -4,-100 0,-100 0,-80 -4,-80 -4,-76 0,-76 0,-72 161.5,-72 161.5,-108"/>
<polyline fill="none" stroke="green" points="0,-104 4,-104 4,-100 0,-100"/>
<polyline fill="none" stroke="green" points="0,-80 4,-80 4,-76 0,-76"/>
<text text-anchor="middle" x="80.75" y="-84.58" font-family="Times New Roman,serif" font-size="14.00">drive_to (dest=&amp;kit_area)</text>
</g>
<!-- 9&#45;&gt;14 -->
<g id="edge13" class="edge">
<title>9&#45;&gt;14</title>
<path fill="none" stroke="black" d="M467.89,-147.38C464.86,-146.09 461.78,-144.93 458.75,-144 338.64,-107.28 300.21,-126.88 172.26,-108.14"/>
<polygon fill="black" stroke="black" points="173.07,-104.57 162.66,-106.53 172.02,-111.49 173.07,-104.57"/>
</g>
<!-- 15 -->
<g id="node15" class="node">
<title>15</title>
<polygon fill="none" stroke="green" points="292.12,-108 179.38,-108 179.38,-104 175.38,-104 175.38,-100 179.38,-100 179.38,-80 175.38,-80 175.38,-76 179.38,-76 179.38,-72 292.12,-72 292.12,-108"/>
<polyline fill="none" stroke="green" points="179.38,-104 183.38,-104 183.38,-100 179.38,-100"/>
<polyline fill="none" stroke="green" points="179.38,-80 183.38,-80 183.38,-76 179.38,-76"/>
<text text-anchor="middle" x="235.75" y="-84.58" font-family="Times New Roman,serif" font-size="14.00">locate (obj=&amp;kit)</text>
</g>
<!-- 9&#45;&gt;15 -->
<g id="edge14" class="edge">
<title>9&#45;&gt;15</title>
<path fill="none" stroke="black" d="M467.78,-147.69C464.78,-146.34 461.73,-145.08 458.75,-144 394.18,-120.69 372.72,-124.66 303.08,-108.48"/>
<polygon fill="black" stroke="black" points="303.98,-104.86 293.44,-105.94 302.36,-111.67 303.98,-104.86"/>
</g>
<!-- 16 -->
<g id="node16" class="node">
<title>16</title>
<polygon fill="none" stroke="green" points="559.38,-108 310.12,-108 310.12,-104 306.12,-104 306.12,-100 310.12,-100 310.12,-80 306.12,-80 306.12,-76 310.12,-76 310.12,-72 559.38,-72 559.38,-108"/>
<polyline fill="none" stroke="green" points="310.12,-104 314.12,-104 314.12,-100 310.12,-100"/>
<polyline fill="none" stroke="green" points="310.12,-80 314.12,-80 314.12,-76 310.12,-76"/>
<text text-anchor="middle" x="434.75" y="-84.58" font-family="Times New Roman,serif" font-size="14.00">move_arm_to (dest=&amp;observation_pose)</text>
</g>
<!-- 10&#45;&gt;16 -->
<g id="edge15" class="edge">
<title>10&#45;&gt;16</title>
<path fill="none" stroke="black" d="M800.92,-156.19C743.15,-145.91 629.02,-125.59 543.45,-110.35"/>
<polygon fill="black" stroke="black" points="544.1,-106.73 533.64,-108.43 542.87,-113.63 544.1,-106.73"/>
</g>
<!-- 17 -->
<g id="node17" class="node">
<title>17</title>
<polygon fill="none" stroke="green" points="792.12,-108 577.38,-108 577.38,-104 573.38,-104 573.38,-100 577.38,-100 577.38,-80 573.38,-80 573.38,-76 577.38,-76 577.38,-72 792.12,-72 792.12,-108"/>
<polyline fill="none" stroke="green" points="577.38,-104 581.38,-104 581.38,-100 577.38,-100"/>
<polyline fill="none" stroke="green" points="577.38,-80 581.38,-80 581.38,-76 577.38,-76"/>
<text text-anchor="middle" x="684.75" y="-84.58" font-family="Times New Roman,serif" font-size="14.00">plan_pose (pose=&amp;grasping_pose)</text>
</g>
<!-- 10&#45;&gt;17 -->
<g id="edge16" class="edge">
<title>10&#45;&gt;17</title>
<path fill="none" stroke="black" d="M801.1,-145.56C780.33,-135.82 754.11,-123.53 731.82,-113.08"/>
<polygon fill="black" stroke="black" points="733.43,-109.5 722.89,-108.42 730.46,-115.83 733.43,-109.5"/>
</g>
<!-- 18 -->
<g id="node18" class="node">
<title>18</title>
<polygon fill="none" stroke="darkred" points="865.25,-108 810.25,-108 810.25,-72 865.25,-72 865.25,-108"/>
<text text-anchor="middle" x="837.75" y="-84.58" font-family="Times New Roman,serif" font-size="14.00">parallel</text>
</g>
<!-- 10&#45;&gt;18 -->
<g id="edge17" class="edge">
<title>10&#45;&gt;18</title>
<path fill="none" stroke="black" d="M837.75,-143.52C837.75,-136.07 837.75,-127.4 837.75,-119.26"/>
<polygon fill="black" stroke="black" points="841.25,-119.32 837.75,-109.32 834.25,-119.32 841.25,-119.32"/>
</g>
<!-- 19 -->
<g id="node19" class="node">
<title>19</title>
<polygon fill="none" stroke="darkred" points="938.25,-108 883.25,-108 883.25,-72 938.25,-72 938.25,-108"/>
<text text-anchor="middle" x="910.75" y="-84.58" font-family="Times New Roman,serif" font-size="14.00">parallel</text>
</g>
<!-- 10&#45;&gt;19 -->
<g id="edge18" class="edge">
<title>10&#45;&gt;19</title>
<path fill="none" stroke="black" d="M857.31,-143.52C865.94,-135.05 876.18,-124.98 885.38,-115.93"/>
<polygon fill="black" stroke="black" points="887.45,-118.82 892.13,-109.32 882.55,-113.83 887.45,-118.82"/>
</g>
<!-- 20 -->
<g id="node20" class="node">
<title>20</title>
<polygon fill="none" stroke="green" points="1143.62,-108 955.88,-108 955.88,-104 951.88,-104 951.88,-100 955.88,-100 955.88,-80 951.88,-80 951.88,-76 955.88,-76 955.88,-72 1143.62,-72 1143.62,-108"/>
<polyline fill="none" stroke="green" points="955.88,-104 959.88,-104 959.88,-100 955.88,-100"/>
<polyline fill="none" stroke="green" points="955.88,-80 959.88,-80 959.88,-76 955.88,-76"/>
<text text-anchor="middle" x="1049.75" y="-84.58" font-family="Times New Roman,serif" font-size="14.00">drive_to (dest=&amp;placing_area)</text>
</g>
<!-- 11&#45;&gt;20 -->
<g id="edge19" class="edge">
<title>11&#45;&gt;20</title>
<path fill="none" stroke="black" d="M1049.75,-145.38C1049.75,-137.6 1049.75,-128.21 1049.75,-119.44"/>
<polygon fill="black" stroke="black" points="1053.25,-119.46 1049.75,-109.46 1046.25,-119.46 1053.25,-119.46"/>
</g>
<!-- 21 -->
<g id="node21" class="node">
<title>21</title>
<polygon fill="none" stroke="green" points="1357.38,-108 1162.12,-108 1162.12,-104 1158.12,-104 1158.12,-100 1162.12,-100 1162.12,-80 1158.12,-80 1158.12,-76 1162.12,-76 1162.12,-72 1357.38,-72 1357.38,-108"/>
<polyline fill="none" stroke="green" points="1162.12,-104 1166.12,-104 1166.12,-100 1162.12,-100"/>
<polyline fill="none" stroke="green" points="1162.12,-80 1166.12,-80 1166.12,-76 1162.12,-76"/>
<text text-anchor="middle" x="1259.75" y="-84.58" font-family="Times New Roman,serif" font-size="14.00">move_to (dest=&amp;placing_pose)</text>
</g>
<!-- 11&#45;&gt;21 -->
<g id="edge20" class="edge">
<title>11&#45;&gt;21</title>
<path fill="none" stroke="black" d="M1077.64,-153.22C1108.32,-142.74 1158.6,-125.56 1198.56,-111.91"/>
<polygon fill="black" stroke="black" points="1199.41,-114.97 1207.74,-108.43 1197.15,-108.35 1199.41,-114.97"/>
</g>
<!-- 22 -->
<g id="node22" class="node">
<title>22</title>
<polygon fill="none" stroke="green" points="1429.75,-108 1375.75,-108 1375.75,-104 1371.75,-104 1371.75,-100 1375.75,-100 1375.75,-80 1371.75,-80 1371.75,-76 1375.75,-76 1375.75,-72 1429.75,-72 1429.75,-108"/>
<polyline fill="none" stroke="green" points="1375.75,-104 1379.75,-104 1379.75,-100 1375.75,-100"/>
<polyline fill="none" stroke="green" points="1375.75,-80 1379.75,-80 1379.75,-76 1375.75,-76"/>
<text text-anchor="middle" x="1402.75" y="-84.58" font-family="Times New Roman,serif" font-size="14.00">place </text>
</g>
<!-- 12&#45;&gt;22 -->
<g id="edge21" class="edge">
<title>12&#45;&gt;22</title>
<path fill="none" stroke="black" d="M1290.74,-148.4C1312.25,-137.38 1342.15,-122.06 1365.65,-110.02"/>
<polygon fill="black" stroke="black" points="1366.98,-112.75 1374.28,-105.08 1363.79,-106.52 1366.98,-112.75"/>
</g>
<!-- 23 -->
<g id="node23" class="node">
<title>23</title>
<polygon fill="none" stroke="green" points="1687.5,-108 1448,-108 1448,-104 1444,-104 1444,-100 1448,-100 1448,-80 1444,-80 1444,-76 1448,-76 1448,-72 1687.5,-72 1687.5,-108"/>
<polyline fill="none" stroke="green" points="1448,-104 1452,-104 1452,-100 1448,-100"/>
<polyline fill="none" stroke="green" points="1448,-80 1452,-80 1452,-76 1448,-76"/>
<text text-anchor="middle" x="1567.75" y="-84.58" font-family="Times New Roman,serif" font-size="14.00">plan_arm_move_to (dest=&amp;arm_home)</text>
</g>
<!-- 12&#45;&gt;23 -->
<g id="edge22" class="edge">
<title>12&#45;&gt;23</title>
<path fill="none" stroke="black" d="M1290.68,-147.6C1293.7,-146.27 1296.75,-145.03 1299.75,-144 1343.54,-128.9 1392.93,-117.6 1437.27,-109.41"/>
<polygon fill="black" stroke="black" points="1437.61,-112.72 1446.83,-107.5 1436.36,-105.84 1437.61,-112.72"/>
</g>
<!-- 24 -->
<g id="node24" class="node">
<title>24</title>
<polygon fill="none" stroke="green" points="614.75,-36 560.75,-36 560.75,-32 556.75,-32 556.75,-28 560.75,-28 560.75,-8 556.75,-8 556.75,-4 560.75,-4 560.75,0 614.75,0 614.75,-36"/>
<polyline fill="none" stroke="green" points="560.75,-32 564.75,-32 564.75,-28 560.75,-28"/>
<polyline fill="none" stroke="green" points="560.75,-8 564.75,-8 564.75,-4 560.75,-4"/>
<text text-anchor="middle" x="587.75" y="-12.57" font-family="Times New Roman,serif" font-size="14.00">grasp </text>
</g>
<!-- 18&#45;&gt;24 -->
<g id="edge23" class="edge">
<title>18&#45;&gt;24</title>
<path fill="none" stroke="black" d="M810.14,-75.49C807.02,-74.21 803.84,-73.01 800.75,-72 727.57,-48.1 702.03,-60.22 625.14,-36"/>
<polygon fill="black" stroke="black" points="626.58,-32.47 615.99,-32.69 624.41,-39.12 626.58,-32.47"/>
</g>
<!-- 25 -->
<g id="node25" class="node">
<title>25</title>
<polygon fill="none" stroke="green" points="872.5,-36 633,-36 633,-32 629,-32 629,-28 633,-28 633,-8 629,-8 629,-4 633,-4 633,0 872.5,0 872.5,-36"/>
<polyline fill="none" stroke="green" points="633,-32 637,-32 637,-28 633,-28"/>
<polyline fill="none" stroke="green" points="633,-8 637,-8 637,-4 633,-4"/>
<text text-anchor="middle" x="752.75" y="-12.57" font-family="Times New Roman,serif" font-size="14.00">plan_arm_move_to (dest=&amp;arm_home)</text>
</g>
<!-- 18&#45;&gt;25 -->
<g id="edge24" class="edge">
<title>18&#45;&gt;25</title>
<path fill="none" stroke="black" d="M816.74,-71.7C806.32,-63.11 793.56,-52.61 782.18,-43.24"/>
<polygon fill="black" stroke="black" points="784.76,-40 774.81,-36.35 780.31,-45.41 784.76,-40"/>
</g>
<!-- 26 -->
<g id="node26" class="node">
<title>26</title>
<polygon fill="none" stroke="green" points="1099.12,-36 890.38,-36 890.38,-32 886.38,-32 886.38,-28 890.38,-28 890.38,-8 886.38,-8 886.38,-4 890.38,-4 890.38,0 1099.12,0 1099.12,-36"/>
<polyline fill="none" stroke="green" points="890.38,-32 894.38,-32 894.38,-28 890.38,-28"/>
<polyline fill="none" stroke="green" points="890.38,-8 894.38,-8 894.38,-4 890.38,-4"/>
<text text-anchor="middle" x="994.75" y="-12.57" font-family="Times New Roman,serif" font-size="14.00">move_arm_to (dest=&amp;arm_home)</text>
</g>
<!-- 19&#45;&gt;26 -->
<g id="edge25" class="edge">
<title>19&#45;&gt;26</title>
<path fill="none" stroke="black" d="M931.51,-71.7C941.81,-63.11 954.42,-52.61 965.66,-43.24"/>
<polygon fill="black" stroke="black" points="967.49,-45.44 972.93,-36.35 963.01,-40.06 967.49,-45.44"/>
</g>
<!-- 27 -->
<g id="node27" class="node">
<title>27</title>
<polygon fill="none" stroke="green" points="1324.38,-36 1117.12,-36 1117.12,-32 1113.12,-32 1113.12,-28 1117.12,-28 1117.12,-8 1113.12,-8 1113.12,-4 1117.12,-4 1117.12,0 1324.38,0 1324.38,-36"/>
<polyline fill="none" stroke="green" points="1117.12,-32 1121.12,-32 1121.12,-28 1117.12,-28"/>
<polyline fill="none" stroke="green" points="1117.12,-8 1121.12,-8 1121.12,-4 1117.12,-4"/>
<text text-anchor="middle" x="1220.75" y="-12.57" font-family="Times New Roman,serif" font-size="14.00">plan_pose (pose=&amp;placing_pose)</text>
</g>
<!-- 19&#45;&gt;27 -->
<g id="edge26" class="edge">
<title>19&#45;&gt;27</title>
<path fill="none" stroke="black" d="M938.38,-75.11C941.17,-73.97 943.99,-72.9 946.75,-72 976.3,-62.34 1045.07,-49.04 1106.32,-38.19"/>
<polygon fill="black" stroke="black" points="1106.63,-41.51 1115.87,-36.33 1105.41,-34.62 1106.63,-41.51"/>
</g>
</g>
</svg>
