<?xml version="1.0" encoding="UTF-8" standalone="no"?>
<!DOCTYPE svg PUBLIC "-//W3C//DTD SVG 1.1//EN"
 "http://www.w3.org/Graphics/SVG/1.1/DTD/svg11.dtd">
<!-- Generated by graphviz version 8.0.5 (20230430.1635)
 -->
<!-- Title: ball Pages: 1 -->
<svg width="420pt" height="332pt"
 viewBox="0.00 0.00 419.55 332.00" xmlns="http://www.w3.org/2000/svg" xmlns:xlink="http://www.w3.org/1999/xlink">
<g id="graph0" class="graph" transform="scale(1 1) rotate(0) translate(4 328)">
<title>ball</title>
<polygon fill="white" stroke="none" points="-4,4 -4,-328 415.55,-328 415.55,4 -4,4"/>
<!-- 1 -->
<g id="node1" class="node">
<title>1</title>
<ellipse fill="none" stroke="black" cx="231.54" cy="-306" rx="41.58" ry="18"/>
<text text-anchor="middle" x="231.54" y="-300.57" font-family="Times New Roman,serif" font-size="14.00">root ball</text>
</g>
<!-- 2 -->
<g id="node2" class="node">
<title>2</title>
<ellipse fill="none" stroke="black" cx="231.54" cy="-234" rx="39.59" ry="18"/>
<text text-anchor="middle" x="231.54" y="-228.57" font-family="Times New Roman,serif" font-size="14.00">fallback</text>
</g>
<!-- 1&#45;&gt;2 -->
<g id="edge1" class="edge">
<title>1&#45;&gt;2</title>
<path fill="none" stroke="black" d="M231.54,-287.7C231.54,-280.24 231.54,-271.32 231.54,-262.97"/>
<polygon fill="black" stroke="black" points="235.04,-263.1 231.54,-253.1 228.04,-263.1 235.04,-263.1"/>
</g>
<!-- 3 -->
<g id="node3" class="node">
<title>3</title>
<ellipse fill="none" stroke="black" cx="130.54" cy="-162" rx="106.95" ry="18"/>
<text text-anchor="middle" x="130.54" y="-156.57" font-family="Times New Roman,serif" font-size="14.00">sequence try_to_place_to</text>
</g>
<!-- 2&#45;&gt;3 -->
<g id="edge2" class="edge">
<title>2&#45;&gt;3</title>
<path fill="none" stroke="black" d="M210.61,-218.5C197.09,-209.12 179.19,-196.72 163.75,-186.02"/>
<polygon fill="black" stroke="black" points="166.21,-182.77 155.99,-179.95 162.22,-188.52 166.21,-182.77"/>
</g>
<!-- 4 -->
<g id="node4" class="node">
<title>4</title>
<ellipse fill="none" stroke="black" cx="333.54" cy="-162" rx="78.01" ry="18"/>
<text text-anchor="middle" x="333.54" y="-156.57" font-family="Times New Roman,serif" font-size="14.00">impl ask_for_help</text>
</g>
<!-- 2&#45;&gt;4 -->
<g id="edge3" class="edge">
<title>2&#45;&gt;4</title>
<path fill="none" stroke="black" d="M252.67,-218.5C266.52,-208.99 284.92,-196.37 300.66,-185.56"/>
<polygon fill="black" stroke="black" points="302.31,-187.99 308.57,-179.45 298.34,-182.22 302.31,-187.99"/>
</g>
<!-- 5 -->
<g id="node5" class="node">
<title>5</title>
<ellipse fill="none" stroke="black" cx="130.54" cy="-90" rx="39.59" ry="18"/>
<text text-anchor="middle" x="130.54" y="-84.58" font-family="Times New Roman,serif" font-size="14.00">fallback</text>
</g>
<!-- 3&#45;&gt;5 -->
<g id="edge4" class="edge">
<title>3&#45;&gt;5</title>
<path fill="none" stroke="black" d="M130.54,-143.7C130.54,-136.24 130.54,-127.32 130.54,-118.97"/>
<polygon fill="black" stroke="black" points="134.04,-119.1 130.54,-109.1 127.04,-119.1 134.04,-119.1"/>
</g>
<!-- 6 -->
<g id="node6" class="node">
<title>6</title>
<ellipse fill="none" stroke="black" cx="64.54" cy="-18" rx="64.54" ry="18"/>
<text text-anchor="middle" x="64.54" y="-12.57" font-family="Times New Roman,serif" font-size="14.00">cond find_ball</text>
</g>
<!-- 5&#45;&gt;6 -->
<g id="edge5" class="edge">
<title>5&#45;&gt;6</title>
<path fill="none" stroke="black" d="M115.56,-73.12C107.36,-64.42 97.02,-53.45 87.79,-43.66"/>
<polygon fill="black" stroke="black" points="90.78,-41.67 81.37,-36.8 85.69,-46.47 90.78,-41.67"/>
</g>
<!-- 7 -->
<g id="node7" class="node">
<title>7</title>
<ellipse fill="none" stroke="black" cx="196.54" cy="-18" rx="49.57" ry="18"/>
<text text-anchor="middle" x="196.54" y="-12.57" font-family="Times New Roman,serif" font-size="14.00">impl grasp</text>
</g>
<!-- 5&#45;&gt;7 -->
<g id="edge6" class="edge">
<title>5&#45;&gt;7</title>
<path fill="none" stroke="black" d="M145.51,-73.12C153.83,-64.29 164.36,-53.13 173.68,-43.24"/>
<polygon fill="black" stroke="black" points="175.85,-45.98 180.16,-36.31 170.75,-41.18 175.85,-45.98"/>
</g>
</g>
</svg>
