<?xml version="1.0" encoding="UTF-8" standalone="no"?>
<!DOCTYPE svg PUBLIC "-//W3C//DTD SVG 1.1//EN"
 "http://www.w3.org/Graphics/SVG/1.1/DTD/svg11.dtd">
<!-- Generated by graphviz version 8.0.5 (20230430.1635)
 -->
<!-- Title: ball Pages: 1 -->
<svg width="420pt" height="332pt"
 viewBox="0.00 0.00 419.55 332.00" xmlns="http://www.w3.org/2000/svg" xmlns:xlink="http://www.w3.org/1999/xlink">
<g id="graph0" class="graph" transform="scale(1 1) rotate(0) translate(4 328)">
<title>ball</title>
<polygon fill="white" stroke="none" points="-4,4 -4,-328 415.55,-328 415.55,4 -4,4"/>
<!-- 1 -->
<g id="node1" class="node">
<title>1</title>
<ellipse fill="none" stroke="black" cx="179.01" cy="-306" rx="41.58" ry="18"/>
<text text-anchor="middle" x="179.01" y="-300.57" font-family="Times New Roman,serif" font-size="14.00">root ball</text>
</g>
<!-- 2 -->
<g id="node2" class="node">
<title>2</title>
<ellipse fill="none" stroke="black" cx="179.01" cy="-234" rx="39.59" ry="18"/>
<text text-anchor="middle" x="179.01" y="-228.57" font-family="Times New Roman,serif" font-size="14.00">fallback</text>
</g>
<!-- 1&#45;&gt;2 -->
<g id="edge1" class="edge">
<title>1&#45;&gt;2</title>
<path fill="none" stroke="black" d="M179.01,-287.7C179.01,-280.24 179.01,-271.32 179.01,-262.97"/>
<polygon fill="black" stroke="black" points="182.51,-263.1 179.01,-253.1 175.51,-263.1 182.51,-263.1"/>
</g>
<!-- 3 -->
<g id="node3" class="node">
<title>3</title>
<ellipse fill="none" stroke="black" cx="78.01" cy="-162" rx="78.01" ry="18"/>
<text text-anchor="middle" x="78.01" y="-156.57" font-family="Times New Roman,serif" font-size="14.00">impl ask_for_help</text>
</g>
<!-- 2&#45;&gt;3 -->
<g id="edge2" class="edge">
<title>2&#45;&gt;3</title>
<path fill="none" stroke="black" d="M158.08,-218.5C144.36,-208.99 126.15,-196.37 110.56,-185.56"/>
<polygon fill="black" stroke="black" points="112.95,-182.27 102.74,-179.45 108.97,-188.02 112.95,-182.27"/>
</g>
<!-- 4 -->
<g id="node4" class="node">
<title>4</title>
<ellipse fill="none" stroke="black" cx="281.01" cy="-162" rx="106.95" ry="18"/>
<text text-anchor="middle" x="281.01" y="-156.57" font-family="Times New Roman,serif" font-size="14.00">sequence try_to_place_to</text>
</g>
<!-- 2&#45;&gt;4 -->
<g id="edge3" class="edge">
<title>2&#45;&gt;4</title>
<path fill="none" stroke="black" d="M200.14,-218.5C213.8,-209.12 231.87,-196.72 247.47,-186.02"/>
<polygon fill="black" stroke="black" points="249.05,-188.49 255.31,-179.95 245.08,-182.72 249.05,-188.49"/>
</g>
<!-- 5 -->
<g id="node5" class="node">
<title>5</title>
<ellipse fill="none" stroke="black" cx="281.01" cy="-90" rx="39.59" ry="18"/>
<text text-anchor="middle" x="281.01" y="-84.58" font-family="Times New Roman,serif" font-size="14.00">fallback</text>
</g>
<!-- 4&#45;&gt;5 -->
<g id="edge4" class="edge">
<title>4&#45;&gt;5</title>
<path fill="none" stroke="black" d="M281.01,-143.7C281.01,-136.24 281.01,-127.32 281.01,-118.97"/>
<polygon fill="black" stroke="black" points="284.51,-119.1 281.01,-109.1 277.51,-119.1 284.51,-119.1"/>
</g>
<!-- 6 -->
<g id="node6" class="node">
<title>6</title>
<ellipse fill="none" stroke="black" cx="215.01" cy="-18" rx="49.57" ry="18"/>
<text text-anchor="middle" x="215.01" y="-12.57" font-family="Times New Roman,serif" font-size="14.00">impl grasp</text>
</g>
<!-- 5&#45;&gt;6 -->
<g id="edge5" class="edge">
<title>5&#45;&gt;6</title>
<path fill="none" stroke="black" d="M266.03,-73.12C257.71,-64.29 247.19,-53.13 237.86,-43.24"/>
<polygon fill="black" stroke="black" points="240.79,-41.18 231.38,-36.31 235.7,-45.98 240.79,-41.18"/>
</g>
<!-- 7 -->
<g id="node7" class="node">
<title>7</title>
<ellipse fill="none" stroke="black" cx="347.01" cy="-18" rx="64.54" ry="18"/>
<text text-anchor="middle" x="347.01" y="-12.57" font-family="Times New Roman,serif" font-size="14.00">cond find_ball</text>
</g>
<!-- 5&#45;&gt;7 -->
<g id="edge6" class="edge">
<title>5&#45;&gt;7</title>
<path fill="none" stroke="black" d="M295.99,-73.12C304.19,-64.42 314.53,-53.45 323.76,-43.66"/>
<polygon fill="black" stroke="black" points="325.86,-46.47 330.17,-36.8 320.77,-41.67 325.86,-46.47"/>
</g>
</g>
</svg>
