<?xml version="1.0" encoding="UTF-8" standalone="no"?>
<!DOCTYPE svg PUBLIC "-//W3C//DTD SVG 1.1//EN"
 "http://www.w3.org/Graphics/SVG/1.1/DTD/svg11.dtd">
<!-- Generated by graphviz version 2.43.0 (0)
 -->
<!-- Title: %3 Pages: 1 -->
<svg width="885pt" height="336pt"
 viewBox="0.00 0.00 885.00 336.00" xmlns="http://www.w3.org/2000/svg" xmlns:xlink="http://www.w3.org/1999/xlink">
<g id="graph0" class="graph" transform="scale(1 1) rotate(0) translate(4 332)">
<title>%3</title>
<polygon fill="white" stroke="transparent" points="-4,4 -4,-332 881,-332 881,4 -4,4"/>
<!-- 1 -->
<g id="node1" class="node">
<title>1</title>
<polygon fill="none" stroke="black" points="474.5,-328 404.5,-328 404.5,-290 474.5,-290 474.5,-328"/>
<text text-anchor="middle" x="439.5" y="-312.8" font-family="Times,serif" font-size="14.00">(1) root</text>
<text text-anchor="middle" x="439.5" y="-297.8" font-family="Times,serif" font-size="14.00">main </text>
</g>
<!-- 2 -->
<g id="node2" class="node">
<title>2</title>
<polygon fill="none" stroke="darkred" points="493,-254 386,-254 386,-218 493,-218 493,-254"/>
<text text-anchor="middle" x="439.5" y="-232.3" font-family="Times,serif" font-size="14.00">(2) sequence</text>
</g>
<!-- 1&#45;&gt;2 -->
<g id="edge1" class="edge">
<title>1&#45;&gt;2</title>
<path fill="none" stroke="black" d="M439.5,-289.72C439.5,-281.97 439.5,-272.79 439.5,-264.27"/>
<polygon fill="black" stroke="black" points="443,-264 439.5,-254 436,-264 443,-264"/>
</g>
<!-- 3 -->
<g id="node3" class="node">
<title>3</title>
<polygon fill="none" stroke="green" points="261,-181 0,-181 0,-177 -4,-177 -4,-173 0,-173 0,-153 -4,-153 -4,-149 0,-149 0,-145 261,-145 261,-181"/>
<polyline fill="none" stroke="green" points="0,-177 4,-177 4,-173 0,-173 "/>
<polyline fill="none" stroke="green" points="0,-153 4,-153 4,-149 0,-149 "/>
<text text-anchor="middle" x="130.5" y="-159.3" font-family="Times,serif" font-size="14.00">(3) store (key=info1,value=initial)</text>
</g>
<!-- 2&#45;&gt;3 -->
<g id="edge2" class="edge">
<title>2&#45;&gt;3</title>
<path fill="none" stroke="black" d="M385.68,-222.63C338.47,-211.79 269.05,-195.84 214.54,-183.31"/>
<polygon fill="black" stroke="black" points="215.07,-179.84 204.54,-181.01 213.5,-186.66 215.07,-179.84"/>
</g>
<!-- 4 -->
<g id="node4" class="node">
<title>4</title>
<polygon fill="none" stroke="blue" points="600,-182 279,-182 279,-144 600,-144 600,-182"/>
<text text-anchor="middle" x="439.5" y="-166.8" font-family="Times,serif" font-size="14.00">(4) fallback</text>
<text text-anchor="middle" x="439.5" y="-151.8" font-family="Times,serif" font-size="14.00">retryer (t=task(&lt;&gt;),default=success(&lt;&gt;))</text>
</g>
<!-- 2&#45;&gt;4 -->
<g id="edge3" class="edge">
<title>2&#45;&gt;4</title>
<path fill="none" stroke="black" d="M439.5,-217.81C439.5,-210.11 439.5,-200.82 439.5,-192.15"/>
<polygon fill="black" stroke="black" points="443,-192.02 439.5,-182.02 436,-192.02 443,-192.02"/>
</g>
<!-- 5 -->
<g id="node5" class="node">
<title>5</title>
<polygon fill="none" stroke="green" points="877,-181 618,-181 618,-177 614,-177 614,-173 618,-173 618,-153 614,-153 614,-149 618,-149 618,-145 877,-145 877,-181"/>
<polyline fill="none" stroke="green" points="618,-177 622,-177 622,-173 618,-173 "/>
<polyline fill="none" stroke="green" points="618,-153 622,-153 622,-149 618,-149 "/>
<text text-anchor="middle" x="747.5" y="-159.3" font-family="Times,serif" font-size="14.00">(5) store (key=info2,value=finish)</text>
</g>
<!-- 2&#45;&gt;5 -->
<g id="edge4" class="edge">
<title>2&#45;&gt;5</title>
<path fill="none" stroke="black" d="M493.15,-222.63C540.2,-211.79 609.39,-195.84 663.74,-183.31"/>
<polygon fill="black" stroke="black" points="664.74,-186.67 673.7,-181.01 663.17,-179.85 664.74,-186.67"/>
</g>
<!-- 6 -->
<g id="node6" class="node">
<title>6</title>
<polygon fill="none" stroke="purple" points="299,-108 174,-108 174,-112 162,-112 162,-72 299,-72 299,-108"/>
<polyline fill="none" stroke="purple" points="162,-108 174,-108 "/>
<text text-anchor="middle" x="230.5" y="-86.3" font-family="Times,serif" font-size="14.00">(6) retry (arg=5)</text>
</g>
<!-- 4&#45;&gt;6 -->
<g id="edge5" class="edge">
<title>4&#45;&gt;6</title>
<path fill="none" stroke="black" d="M386.49,-143.99C357.14,-134.02 320.55,-121.59 290.2,-111.28"/>
<polygon fill="black" stroke="black" points="291.17,-107.91 280.58,-108.01 288.92,-114.54 291.17,-107.91"/>
</g>
<!-- 7 -->
<g id="node7" class="node">
<title>7</title>
<polygon fill="none" stroke="green" points="561.5,-108 317.5,-108 317.5,-104 313.5,-104 313.5,-100 317.5,-100 317.5,-80 313.5,-80 313.5,-76 317.5,-76 317.5,-72 561.5,-72 561.5,-108"/>
<polyline fill="none" stroke="green" points="317.5,-104 321.5,-104 321.5,-100 317.5,-100 "/>
<polyline fill="none" stroke="green" points="317.5,-80 321.5,-80 321.5,-76 317.5,-76 "/>
<text text-anchor="middle" x="439.5" y="-86.3" font-family="Times,serif" font-size="14.00">(7) fail (reason=just should fail)</text>
</g>
<!-- 4&#45;&gt;7 -->
<g id="edge6" class="edge">
<title>4&#45;&gt;7</title>
<path fill="none" stroke="black" d="M439.5,-143.72C439.5,-135.97 439.5,-126.79 439.5,-118.27"/>
<polygon fill="black" stroke="black" points="443,-118 439.5,-108 436,-118 443,-118"/>
</g>
<!-- 8 -->
<g id="node8" class="node">
<title>8</title>
<polygon fill="none" stroke="green" points="679.5,-108 579.5,-108 579.5,-104 575.5,-104 575.5,-100 579.5,-100 579.5,-80 575.5,-80 575.5,-76 579.5,-76 579.5,-72 679.5,-72 679.5,-108"/>
<polyline fill="none" stroke="green" points="579.5,-104 583.5,-104 583.5,-100 579.5,-100 "/>
<polyline fill="none" stroke="green" points="579.5,-80 583.5,-80 583.5,-76 579.5,-76 "/>
<text text-anchor="middle" x="629.5" y="-86.3" font-family="Times,serif" font-size="14.00">(8) success </text>
</g>
<!-- 4&#45;&gt;8 -->
<g id="edge7" class="edge">
<title>4&#45;&gt;8</title>
<path fill="none" stroke="black" d="M487.94,-143.9C514.29,-134.05 547.01,-121.83 574.34,-111.61"/>
<polygon fill="black" stroke="black" points="575.63,-114.87 583.77,-108.09 573.17,-108.31 575.63,-114.87"/>
</g>
<!-- 9 -->
<g id="node9" class="node">
<title>9</title>
<polygon fill="none" stroke="green" points="318,-36 143,-36 143,-32 139,-32 139,-28 143,-28 143,-8 139,-8 139,-4 143,-4 143,0 318,0 318,-36"/>
<polyline fill="none" stroke="green" points="143,-32 147,-32 147,-28 143,-28 "/>
<polyline fill="none" stroke="green" points="143,-8 147,-8 147,-4 143,-4 "/>
<text text-anchor="middle" x="230.5" y="-14.3" font-family="Times,serif" font-size="14.00">(9) task (config=&amp;obj)</text>
</g>
<!-- 6&#45;&gt;9 -->
<g id="edge8" class="edge">
<title>6&#45;&gt;9</title>
<path fill="none" stroke="black" d="M230.5,-71.7C230.5,-63.98 230.5,-54.71 230.5,-46.11"/>
<polygon fill="black" stroke="black" points="234,-46.1 230.5,-36.1 227,-46.1 234,-46.1"/>
</g>
</g>
</svg>
