<?xml version="1.0" encoding="UTF-8" standalone="no"?>
<!DOCTYPE svg PUBLIC "-//W3C//DTD SVG 1.1//EN"
 "http://www.w3.org/Graphics/SVG/1.1/DTD/svg11.dtd">
<!-- Generated by graphviz version 8.0.5 (20230430.1635)
 -->
<!-- Pages: 1 -->
<svg width="754pt" height="339pt"
 viewBox="0.00 0.00 753.75 339.00" xmlns="http://www.w3.org/2000/svg" xmlns:xlink="http://www.w3.org/1999/xlink">
<g id="graph0" class="graph" transform="scale(1 1) rotate(0) translate(4 335)">
<polygon fill="white" stroke="none" points="-4,4 -4,-335 749.75,-335 749.75,4 -4,4"/>
<!-- 1 -->
<g id="node1" class="node">
<title>1</title>
<polygon fill="none" stroke="black" points="385.5,-331 326.75,-331 326.75,-291.5 385.5,-291.5 385.5,-331"/>
<text text-anchor="middle" x="356.12" y="-313.7" font-family="Times New Roman,serif" font-size="14.00">(1) root</text>
<text text-anchor="middle" x="356.12" y="-297.95" font-family="Times New Roman,serif" font-size="14.00">main </text>
</g>
<!-- 2 -->
<g id="node2" class="node">
<title>2</title>
<polygon fill="none" stroke="darkred" points="399.75,-255.5 312.5,-255.5 312.5,-219.5 399.75,-219.5 399.75,-255.5"/>
<text text-anchor="middle" x="356.12" y="-232.07" font-family="Times New Roman,serif" font-size="14.00">(2) sequence</text>
</g>
<!-- 1&#45;&gt;2 -->
<g id="edge1" class="edge">
<title>1&#45;&gt;2</title>
<path fill="none" stroke="black" d="M356.12,-291.02C356.12,-283.57 356.12,-274.9 356.12,-266.76"/>
<polygon fill="black" stroke="black" points="359.63,-266.82 356.12,-256.82 352.63,-266.82 359.63,-266.82"/>
</g>
<!-- 3 -->
<g id="node3" class="node">
<title>3</title>
<polygon fill="none" stroke="green" points="216.25,-181.75 0,-181.75 0,-177.75 -4,-177.75 -4,-173.75 0,-173.75 0,-153.75 -4,-153.75 -4,-149.75 0,-149.75 0,-145.75 216.25,-145.75 216.25,-181.75"/>
<polyline fill="none" stroke="green" points="0,-177.75 4,-177.75 4,-173.75 0,-173.75"/>
<polyline fill="none" stroke="green" points="0,-153.75 4,-153.75 4,-149.75 0,-149.75"/>
<text text-anchor="middle" x="108.12" y="-158.32" font-family="Times New Roman,serif" font-size="14.00">(3) store_str (key=info,value=initial)</text>
</g>
<!-- 2&#45;&gt;3 -->
<g id="edge2" class="edge">
<title>2&#45;&gt;3</title>
<path fill="none" stroke="black" d="M312.07,-223.76C275.17,-213.08 221.79,-197.64 178.9,-185.23"/>
<polygon fill="black" stroke="black" points="180.1,-181.64 169.52,-182.22 178.16,-188.37 180.1,-181.64"/>
</g>
<!-- 4 -->
<g id="node4" class="node">
<title>4</title>
<polygon fill="none" stroke="blue" points="478.12,-183.5 234.12,-183.5 234.12,-144 478.12,-144 478.12,-183.5"/>
<text text-anchor="middle" x="356.12" y="-166.2" font-family="Times New Roman,serif" font-size="14.00">(4) fallback</text>
<text text-anchor="middle" x="356.12" y="-150.45" font-family="Times New Roman,serif" font-size="14.00">retryer (t=task(&lt;&gt;),default=success(&lt;&gt;))</text>
</g>
<!-- 2&#45;&gt;4 -->
<g id="edge3" class="edge">
<title>2&#45;&gt;4</title>
<path fill="none" stroke="black" d="M356.12,-219.13C356.12,-211.83 356.12,-203.12 356.12,-194.84"/>
<polygon fill="black" stroke="black" points="359.63,-194.98 356.12,-184.98 352.63,-194.98 359.63,-194.98"/>
</g>
<!-- 5 -->
<g id="node5" class="node">
<title>5</title>
<polygon fill="none" stroke="green" points="745.75,-181.75 496.5,-181.75 496.5,-177.75 492.5,-177.75 492.5,-173.75 496.5,-173.75 496.5,-153.75 492.5,-153.75 492.5,-149.75 496.5,-149.75 496.5,-145.75 745.75,-145.75 745.75,-181.75"/>
<polyline fill="none" stroke="green" points="496.5,-177.75 500.5,-177.75 500.5,-173.75 496.5,-173.75"/>
<polyline fill="none" stroke="green" points="496.5,-153.75 500.5,-153.75 500.5,-149.75 496.5,-149.75"/>
<text text-anchor="middle" x="621.12" y="-158.32" font-family="Times New Roman,serif" font-size="14.00">(5) store_str (key=field,value=some_info)</text>
</g>
<!-- 2&#45;&gt;5 -->
<g id="edge4" class="edge">
<title>2&#45;&gt;5</title>
<path fill="none" stroke="black" d="M400.18,-224.57C439.86,-213.83 499.02,-197.81 546.13,-185.05"/>
<polygon fill="black" stroke="black" points="546.87,-188.21 555.6,-182.22 545.04,-181.45 546.87,-188.21"/>
</g>
<!-- 6 -->
<g id="node6" class="node">
<title>6</title>
<polygon fill="none" stroke="purple" points="243.12,-108 149.12,-108 149.12,-112 137.12,-112 137.12,-72 243.12,-72 243.12,-108"/>
<polyline fill="none" stroke="purple" points="137.12,-108 149.12,-108"/>
<text text-anchor="middle" x="190.12" y="-84.58" font-family="Times New Roman,serif" font-size="14.00">(6) retry (arg=5)</text>
</g>
<!-- 4&#45;&gt;6 -->
<g id="edge5" class="edge">
<title>4&#45;&gt;6</title>
<path fill="none" stroke="black" d="M311.64,-143.52C289.64,-134.01 263,-122.5 240.27,-112.68"/>
<polygon fill="black" stroke="black" points="242.04,-109.19 231.47,-108.44 239.26,-115.62 242.04,-109.19"/>
</g>
<!-- 7 -->
<g id="node7" class="node">
<title>7</title>
<polygon fill="none" stroke="green" points="451.5,-108 260.75,-108 260.75,-104 256.75,-104 256.75,-100 260.75,-100 260.75,-80 256.75,-80 256.75,-76 260.75,-76 260.75,-72 451.5,-72 451.5,-108"/>
<polyline fill="none" stroke="green" points="260.75,-104 264.75,-104 264.75,-100 260.75,-100"/>
<polyline fill="none" stroke="green" points="260.75,-80 264.75,-80 264.75,-76 260.75,-76"/>
<text text-anchor="middle" x="356.12" y="-84.58" font-family="Times New Roman,serif" font-size="14.00">(7) fail (reason=just should fail)</text>
</g>
<!-- 4&#45;&gt;7 -->
<g id="edge6" class="edge">
<title>4&#45;&gt;7</title>
<path fill="none" stroke="black" d="M356.12,-143.52C356.12,-136.07 356.12,-127.4 356.12,-119.26"/>
<polygon fill="black" stroke="black" points="359.63,-119.32 356.12,-109.32 352.63,-119.32 359.63,-119.32"/>
</g>
<!-- 8 -->
<g id="node8" class="node">
<title>8</title>
<polygon fill="none" stroke="green" points="552.88,-108 469.38,-108 469.38,-104 465.38,-104 465.38,-100 469.38,-100 469.38,-80 465.38,-80 465.38,-76 469.38,-76 469.38,-72 552.88,-72 552.88,-108"/>
<polyline fill="none" stroke="green" points="469.38,-104 473.38,-104 473.38,-100 469.38,-100"/>
<polyline fill="none" stroke="green" points="469.38,-80 473.38,-80 473.38,-76 469.38,-76"/>
<text text-anchor="middle" x="511.12" y="-84.58" font-family="Times New Roman,serif" font-size="14.00">(8) success </text>
</g>
<!-- 4&#45;&gt;8 -->
<g id="edge7" class="edge">
<title>4&#45;&gt;8</title>
<path fill="none" stroke="black" d="M397.66,-143.52C418.02,-134.1 442.64,-122.7 463.73,-112.94"/>
<polygon fill="black" stroke="black" points="464.85,-115.82 472.45,-108.44 461.91,-109.46 464.85,-115.82"/>
</g>
<!-- 9 -->
<g id="node9" class="node">
<title>9</title>
<polygon fill="none" stroke="green" points="257.75,-36 122.5,-36 122.5,-32 118.5,-32 118.5,-28 122.5,-28 122.5,-8 118.5,-8 118.5,-4 122.5,-4 122.5,0 257.75,0 257.75,-36"/>
<polyline fill="none" stroke="green" points="122.5,-32 126.5,-32 126.5,-28 122.5,-28"/>
<polyline fill="none" stroke="green" points="122.5,-8 126.5,-8 126.5,-4 122.5,-4"/>
<text text-anchor="middle" x="190.12" y="-12.57" font-family="Times New Roman,serif" font-size="14.00">(9) task (config={..})</text>
</g>
<!-- 6&#45;&gt;9 -->
<g id="edge8" class="edge">
<title>6&#45;&gt;9</title>
<path fill="none" stroke="black" d="M190.12,-71.7C190.12,-64.24 190.12,-55.32 190.12,-46.97"/>
<polygon fill="black" stroke="black" points="193.63,-47.1 190.12,-37.1 186.63,-47.1 193.63,-47.1"/>
</g>
</g>
</svg>
