<?xml version="1.0" encoding="UTF-8" standalone="no"?>
<!DOCTYPE svg PUBLIC "-//W3C//DTD SVG 1.1//EN"
 "http://www.w3.org/Graphics/SVG/1.1/DTD/svg11.dtd">
<!-- Generated by graphviz version 8.0.5 (20230430.1635)
 -->
<!-- Pages: 1 -->
<svg width="233pt" height="192pt"
 viewBox="0.00 0.00 232.50 191.50" xmlns="http://www.w3.org/2000/svg" xmlns:xlink="http://www.w3.org/1999/xlink">
<g id="graph0" class="graph" transform="scale(1 1) rotate(0) translate(4 187.5)">
<polygon fill="white" stroke="none" points="-4,4 -4,-187.5 228.5,-187.5 228.5,4 -4,4"/>
<!-- 1 -->
<g id="node1" class="node">
<title>1</title>
<polygon fill="none" stroke="black" points="118.88,-183.5 60.12,-183.5 60.12,-147.5 118.88,-147.5 118.88,-183.5"/>
<text text-anchor="middle" x="89.5" y="-160.07" font-family="Times New Roman,serif" font-size="14.00">(1) root</text>
</g>
<!-- 2 -->
<g id="node2" class="node">
<title>2</title>
<polygon fill="none" stroke="blue" points="79,-109.75 0,-109.75 0,-73.75 79,-73.75 79,-109.75"/>
<text text-anchor="middle" x="39.5" y="-86.33" font-family="Times New Roman,serif" font-size="14.00">(2) fallback</text>
</g>
<!-- 1&#45;&gt;2 -->
<g id="edge1" class="edge">
<title>1&#45;&gt;2</title>
<path fill="none" stroke="black" d="M77.4,-147.13C71.54,-138.73 64.39,-128.47 57.89,-119.13"/>
<polygon fill="black" stroke="black" points="60.25,-117.41 51.67,-111.21 54.51,-121.41 60.25,-117.41"/>
</g>
<!-- 4 -->
<g id="node3" class="node">
<title>4</title>
<polygon fill="none" stroke="darkred" points="184.12,-111.5 96.88,-111.5 96.88,-72 184.12,-72 184.12,-111.5"/>
<text text-anchor="middle" x="140.5" y="-94.2" font-family="Times New Roman,serif" font-size="14.00">(4) sequence</text>
<text text-anchor="middle" x="140.5" y="-78.45" font-family="Times New Roman,serif" font-size="14.00"> (a=1)</text>
</g>
<!-- 1&#45;&gt;4 -->
<g id="edge2" class="edge">
<title>1&#45;&gt;4</title>
<path fill="none" stroke="black" d="M101.85,-147.13C107.45,-139.25 114.21,-129.73 120.51,-120.87"/>
<polygon fill="black" stroke="black" points="123.89,-123.16 126.83,-112.98 118.19,-119.1 123.89,-123.16"/>
</g>
<!-- 3 -->
<g id="node4" class="node">
<title>3</title>
<polygon fill="none" stroke="green" points="66.5,-36 12.5,-36 12.5,-32 8.5,-32 8.5,-28 12.5,-28 12.5,-8 8.5,-8 8.5,-4 12.5,-4 12.5,0 66.5,0 66.5,-36"/>
<polyline fill="none" stroke="green" points="12.5,-32 16.5,-32 16.5,-28 12.5,-28"/>
<polyline fill="none" stroke="green" points="12.5,-8 16.5,-8 16.5,-4 12.5,-4"/>
<text text-anchor="middle" x="39.5" y="-12.57" font-family="Times New Roman,serif" font-size="14.00">(3) &#160;</text>
</g>
<!-- 2&#45;&gt;3 -->
<g id="edge3" class="edge">
<title>2&#45;&gt;3</title>
<path fill="none" stroke="black" d="M39.5,-73.38C39.5,-65.6 39.5,-56.21 39.5,-47.44"/>
<polygon fill="black" stroke="black" points="43,-47.46 39.5,-37.46 36,-47.46 43,-47.46"/>
</g>
<!-- 5 -->
<g id="node5" class="node">
<title>5</title>
<polygon fill="none" stroke="green" points="152.5,-36 98.5,-36 98.5,-32 94.5,-32 94.5,-28 98.5,-28 98.5,-8 94.5,-8 94.5,-4 98.5,-4 98.5,0 152.5,0 152.5,-36"/>
<polyline fill="none" stroke="green" points="98.5,-32 102.5,-32 102.5,-28 98.5,-28"/>
<polyline fill="none" stroke="green" points="98.5,-8 102.5,-8 102.5,-4 98.5,-4"/>
<text text-anchor="middle" x="125.5" y="-12.57" font-family="Times New Roman,serif" font-size="14.00">(5) a </text>
</g>
<!-- 4&#45;&gt;5 -->
<g id="edge4" class="edge">
<title>4&#45;&gt;5</title>
<path fill="none" stroke="black" d="M136.48,-71.52C134.91,-63.99 133.07,-55.2 131.35,-46.98"/>
<polygon fill="black" stroke="black" points="134.59,-46.39 129.12,-37.32 127.74,-47.82 134.59,-46.39"/>
</g>
<!-- 6 -->
<g id="node6" class="node">
<title>6</title>
<polygon fill="none" stroke="green" points="224.5,-36 170.5,-36 170.5,-32 166.5,-32 166.5,-28 170.5,-28 170.5,-8 166.5,-8 166.5,-4 170.5,-4 170.5,0 224.5,0 224.5,-36"/>
<polyline fill="none" stroke="green" points="170.5,-32 174.5,-32 174.5,-28 170.5,-28"/>
<polyline fill="none" stroke="green" points="170.5,-8 174.5,-8 174.5,-4 170.5,-4"/>
<text text-anchor="middle" x="197.5" y="-12.57" font-family="Times New Roman,serif" font-size="14.00">(6) &#160;</text>
</g>
<!-- 4&#45;&gt;6 -->
<g id="edge5" class="edge">
<title>4&#45;&gt;6</title>
<path fill="none" stroke="black" d="M155.77,-71.52C162.3,-63.3 170.02,-53.59 177.04,-44.76"/>
<polygon fill="black" stroke="black" points="180.26,-47.32 183.74,-37.32 174.78,-42.97 180.26,-47.32"/>
</g>
</g>
</svg>
